<svg xmlns="http://www.w3.org/2000/svg" version="1.1" xmlns:xlink="http://www.w3.org/1999/xlink" xmlns:svgjs="http://svgjs.dev/svgjs" width="1000" height="1000" viewBox="0 0 1000 1000"><rect width="1000" height="1000" fill="#000000"></rect><g transform="matrix(0.7,0,0,0.7,149.57575757575756,282.1265587044535)"><svg viewBox="0 0 396 247" data-background-color="#dedede" preserveAspectRatio="xMidYMid meet" height="623" width="1000" xmlns="http://www.w3.org/2000/svg" xmlns:xlink="http://www.w3.org/1999/xlink"><g id="tight-bounds" transform="matrix(1,0,0,1,0.2400000000000091,-0.09999999999999432)"><svg viewBox="0 0 395.52 247.2" height="247.2" width="395.52"><g><svg></svg></g><g><svg viewBox="0 0 395.52 247.2" height="247.2" width="395.52"><g transform="matrix(1,0,0,1,82.68972607627747,47.215199999999996)"><svg viewBox="0 0 230.14054784744505 152.7696" height="152.7696" width="230.14054784744505"><g><svg viewBox="0 0 230.14054784744505 152.7696" height="152.7696" width="230.14054784744505"><g><svg viewBox="0 0 244.43135999999998 162.25598419713918" height="152.7696" width="230.14054784744505"><g><svg viewBox="0 0 244.43135999999998 162.25598419713918" height="162.25598419713918" width="244.43135999999998"><g><svg viewBox="0 0 244.43135999999998 162.25598419713918" height="162.25598419713918" width="244.43135999999998"><g><svg viewBox="0 0 244.43135999999998 99.52416938110747" height="99.52416938110747" width="244.43135999999998"><g transform="matrix(1,0,0,1,0,0)"><svg width="244.43135999999998" viewBox="-0.10000000149011612 -37.5 122.79000091552734 50" height="99.52416938110747" data-palette-color="#000000"><path d="M20.75 0L18.35-8.35 8.4-8.35 6 0-0.1 0 10.55-35 16.15-35 26.85 0 20.75 0ZM10-13.95L16.75-13.95 13.35-25.8 10-13.95ZM34.2 0.5Q31.45 0.5 30.07-1.25 28.7-3 28.7-6.05L28.7-6.05 28.7-37.5 34.7-37.5 34.7-8.1Q34.7-6 35.12-5.3 35.55-4.6 36.95-4.6L36.95-4.6 36.45 0.5 34.2 0.5ZM48.8 12.5Q44.3 12.5 41.57 10.65 38.84 8.8 38.84 5.5L38.84 5.5Q38.84 3.65 39.8 2.25 40.75 0.85 42.59-0.25L42.59-0.25Q40.45-1.5 40.45-3.7L40.45-3.7Q40.45-5.85 42.8-7.25L42.8-7.25Q41-8.6 40-10.78 39-12.95 39-15.55L39-15.55Q39-18.3 40.07-20.55 41.15-22.8 43.2-24.1 45.25-25.4 48-25.4L48-25.4Q51.25-25.4 53.5-23.6L53.5-23.6Q55.55-25.4 57.7-25.4L57.7-25.4Q58.34-25.4 58.95-25.3L58.95-25.3 58.5-21.45Q58-21.55 57.5-21.55L57.5-21.55Q56.45-21.55 55.59-21.15L55.59-21.15Q57-18.75 57-15.55L57-15.55Q57-12.8 55.92-10.55 54.84-8.3 52.8-6.98 50.75-5.65 48-5.65L48-5.65Q46.9-5.65 46.09-5.85L46.09-5.85Q45.65-5.5 45.65-5L45.65-5Q45.65-4.5 46-4.23 46.34-3.95 47.2-3.75L47.2-3.75 52.34-2.55Q56-1.7 57.65-0.03 59.3 1.65 59.3 4.65L59.3 4.65Q59.3 7 57.97 8.78 56.65 10.55 54.25 11.53 51.84 12.5 48.8 12.5L48.8 12.5ZM48-10.15Q49.65-10.15 50.57-11.63 51.5-13.1 51.5-15.55L51.5-15.55Q51.5-17.95 50.57-19.43 49.65-20.9 48-20.9L48-20.9Q46.3-20.9 45.4-19.43 44.5-17.95 44.5-15.55L44.5-15.55Q44.5-13.1 45.4-11.63 46.3-10.15 48-10.15L48-10.15ZM48.95 8Q51.25 8 52.67 7.23 54.09 6.45 54.09 5L54.09 5Q54.09 3.8 53.32 3.13 52.55 2.45 50.65 2L50.65 2 46.34 0.95Q45 1.75 44.32 2.63 43.65 3.5 43.65 4.65L43.65 4.65Q43.65 6.25 45.09 7.13 46.55 8 48.95 8L48.95 8ZM71.64 0.5Q68.24 0.5 65.74-1.25 63.24-3 61.92-5.95 60.59-8.9 60.59-12.45L60.59-12.45Q60.59-16 61.92-18.95 63.24-21.9 65.74-23.65 68.24-25.4 71.64-25.4L71.64-25.4Q75.04-25.4 77.57-23.65 80.09-21.9 81.42-18.95 82.74-16 82.74-12.45L82.74-12.45Q82.74-8.9 81.42-5.95 80.09-3 77.57-1.25 75.04 0.5 71.64 0.5L71.64 0.5ZM71.64-4.4Q73.99-4.4 75.32-6.6 76.64-8.8 76.64-12.45L76.64-12.45Q76.64-16.1 75.32-18.3 73.99-20.5 71.64-20.5L71.64-20.5Q69.34-20.5 68.02-18.28 66.69-16.05 66.69-12.45L66.69-12.45Q66.69-8.85 68.02-6.63 69.34-4.4 71.64-4.4L71.64-4.4ZM86.19 0L86.19-25 91.44-25 91.84-22.35Q93.24-23.9 94.47-24.65 95.69-25.4 97.34-25.4L97.34-25.4Q98.04-25.4 98.64-25.25L98.64-25.25 98.19-19.2Q97.44-19.45 96.59-19.45L96.59-19.45Q95.39-19.45 94.44-18.9 93.49-18.35 92.19-17.05L92.19-17.05 92.19 0 86.19 0ZM100.49-28.8L100.49-35 106.49-35 106.49-28.8 100.49-28.8ZM100.49 0L100.49-25 106.49-25 106.49 0 100.49 0ZM118.19 0.5Q115.34 0.5 113.81-1.15 112.29-2.8 112.29-6.05L112.29-6.05 112.29-19.9 109.49-19.9 110.04-25 112.29-25 112.29-30.5 118.29-31.15 118.29-25 122.64-25 122.64-19.9 118.29-19.9 118.29-7.6Q118.29-6.05 118.91-5.33 119.54-4.6 120.89-4.6L120.89-4.6 122.69-4.6 122.14 0.5 118.19 0.5Z" opacity="1" transform="matrix(1,0,0,1,0,0)" fill="#ffffff" class="undefined-text-0" data-fill-palette-color="primary" id="text-0"></path></svg></g></svg></g><g transform="matrix(1,0,0,1,0,123.0194371919218)"><svg viewBox="0 0 244.43135999999998 39.23654700521739" height="39.23654700521739" width="244.43135999999998"><g transform="matrix(1,0,0,1,0,0)"><svg width="244.43135999999998" viewBox="2.0999999046325684 -33.939998626708984 280.72998046875 45.06999969482422" height="39.23654700521739" data-palette-color="#61777f"><path d="M26.07-7.67L24.85-7.67 24.85-17.48Q24.85-20.17 24.83-21.97 24.8-23.78 24.73-24.76 24.66-25.73 24.56-25.93L24.56-25.93 21.24-26.61 21.39-28.66 31.01-28.66 31.15-26.61 28.13-25.93Q28.08-25.73 28-24.76 27.93-23.78 27.88-21.97 27.83-20.17 27.83-17.48L27.83-17.48 27.83-6.59Q27.83-4.83 27.86-3.15 27.88-1.46 27.88 0.24L27.88 0.24 25.44 0.24 6.93-23.44 8.5-23.49 8.5-11.47Q8.5-8.64 8.54-6.79 8.59-4.93 8.67-3.96 8.74-2.98 8.79-2.73L8.79-2.73 12.16-2.05 12.01 0 2.25 0 2.1-2.05 5.13-2.73Q5.22-2.98 5.27-3.98 5.32-4.98 5.37-6.86 5.42-8.74 5.42-11.47L5.42-11.47 5.42-19.24Q5.42-21.19 5.37-22.61 5.32-24.02 5.27-24.85 5.22-25.68 5.13-25.93L5.13-25.93 2.1-26.61 2.25-28.66 9.28-28.66 26.07-7.67ZM47.51 0L35.64 0 35.5-2.05 38.33-2.73Q38.38-2.93 38.43-3.81 38.47-4.69 38.5-6.23 38.52-7.76 38.52-9.86L38.52-9.86 38.57-19.19Q38.57-21.19 38.55-22.63 38.52-24.07 38.47-24.9 38.43-25.73 38.38-25.88L38.38-25.88 35.35-26.61 35.45-28.66 50.63-28.66Q51.46-28.66 52.41-28.69 53.37-28.71 54.39-28.76 55.42-28.81 56.35-28.91L56.35-28.91 57.42-22.17 55.03-21.83 53.27-25.98Q52.88-26.07 52.39-26.12 51.9-26.17 51.36-26.17L51.36-26.17 46.48-26.17Q45.7-26.17 44.85-26.12 43.99-26.07 43.45-25.98L43.45-25.98Q43.45-25.78 43.43-25.29 43.41-24.8 43.41-24.07 43.41-23.34 43.41-22.29 43.41-21.24 43.41-19.87L43.41-19.87 43.45-9.08Q43.45-7.23 43.5-5.86 43.55-4.49 43.6-3.71 43.65-2.93 43.7-2.73L43.7-2.73 47.65-2.15 47.51 0ZM53.85-9.47L51.51-9.47 50.97-12.99Q50.53-13.09 49.9-13.13 49.27-13.18 48.44-13.18L48.44-13.18 44.77-13.18Q44.14-13.18 43.5-13.16 42.87-13.13 42.14-13.09L42.14-13.09 42.14-15.97Q42.72-15.92 43.41-15.89 44.09-15.87 44.77-15.87L44.77-15.87 48.44-15.87Q49.41-15.87 50.05-15.92 50.68-15.97 50.97-16.02L50.97-16.02 51.51-19.34 53.85-19.34 53.85-9.47ZM84.57-28.91L84.57-28.91 85.69-20.75 83.2-20.51 81.25-26.03Q80.76-26.12 80.24-26.15 79.73-26.17 79.29-26.17L79.29-26.17 77.53-26.17Q77.09-26.17 76.34-26.17 75.58-26.17 75.04-26.07L75.04-26.07Q75.04-25.73 75.02-24.29 75-22.85 74.97-20.87 74.95-18.9 74.95-16.99L74.95-16.99 74.95-11.08Q74.95-8.11 75-5.86 75.04-3.61 75.09-2.73L75.09-2.73 79.24-2.15 79.15 0 65.82 0 65.67-2.15 69.82-2.73Q69.87-3.61 69.92-5.86 69.97-8.11 69.97-11.08L69.97-11.08 69.97-16.99Q69.97-18.9 69.94-20.87 69.92-22.85 69.92-24.29 69.92-25.73 69.87-26.07L69.87-26.07Q69.38-26.17 68.62-26.17 67.87-26.17 67.38-26.17L67.38-26.17 65.57-26.17Q65.08-26.17 64.59-26.15 64.11-26.12 63.62-26.03L63.62-26.03 61.66-20.41 59.22-20.7 60.25-28.91Q60.79-28.86 61.47-28.81 62.15-28.76 62.91-28.74 63.67-28.71 64.37-28.69 65.08-28.66 65.67-28.66L65.67-28.66 79.15-28.66Q79.73-28.66 80.44-28.69 81.15-28.71 81.88-28.74 82.61-28.76 83.3-28.81 83.98-28.86 84.57-28.91ZM104.53 0L95.94 0 95.79-2.05 98.28-2.73 108.24-27.64 111.51-29.54 122.35-2.73 124.79-2.05 124.65 0 113.76 0 113.66-2.05 116.69-2.73 113.86-9.72 113.32-11.28 108.14-23.97 109.37-24.27 104.63-11.33 104.09-9.86 101.6-2.73 104.63-2.05 104.53 0ZM103.07-8.79L103.07-8.79 103.07-11.62Q103.99-11.57 105.46-11.5 106.92-11.43 109.17-11.43L109.17-11.43Q111.37-11.43 112.88-11.5 114.39-11.57 115.27-11.62L115.27-11.62 115.27-8.84Q113.86-8.84 112.32-8.89 110.78-8.94 109.17-8.94L109.17-8.94Q107.56-8.94 106.07-8.89 104.58-8.84 103.07-8.79ZM136.8 0L125.96 0 125.82-1.9 128.84-2.69Q128.89-2.93 128.94-3.54 128.99-4.15 129.02-5.18 129.04-6.2 129.04-7.76L129.04-7.76 129.09-11.52Q129.09-13.13 128.99-14.58 128.89-16.02 128.7-16.99L128.7-16.99 125.57-17.68 125.57-19.48 132.8-21.44 133.83-20.65 133.53-17.97 133.68-17.92Q135.34-19.78 137.05-20.65 138.76-21.53 140.71-21.53L140.71-21.53Q142.61-21.53 144.23-20.58 145.84-19.63 146.84-17.72 147.84-15.82 147.84-12.94L147.84-12.94 147.84-7.71Q147.84-6.01 147.91-4.57 147.99-3.13 148.08-2.69L148.08-2.69 151.11-1.9 151.01 0 140.37 0 140.22-1.9 143.05-2.69Q143.15-3.08 143.2-3.74 143.25-4.39 143.27-5.35 143.3-6.3 143.3-7.47L143.3-7.47 143.3-12.35Q143.3-14.4 142.61-15.65 141.93-16.89 140.88-17.46 139.83-18.02 138.66-18.02L138.66-18.02Q137.15-18.02 135.88-17.31 134.61-16.6 133.68-15.33L133.68-15.33 133.68-8.01Q133.68-5.96 133.75-4.54 133.83-3.13 133.92-2.69L133.92-2.69 136.95-1.9 136.8 0ZM161.46 0.39L161.46 0.39Q159.41 0.39 157.85-0.46 156.28-1.32 155.45-2.59 154.62-3.86 154.62-5.13L154.62-5.13Q154.62-6.79 155.67-7.89 156.72-8.98 159.16-9.77L159.16-9.77 166.68-12.21 166.68-14.45Q166.68-15.58 165.98-16.55 165.27-17.53 164.1-18.12 162.92-18.7 161.46-18.7L161.46-18.7Q160.43-18.7 160.02-18.24 159.6-17.77 159.51-16.41L159.51-16.41 159.36-14.06Q157.41-13.62 156.06-14.18 154.72-14.75 154.72-16.06L154.72-16.06Q154.72-16.89 155.53-17.77 156.33-18.65 157.58-19.46 158.82-20.26 160.24-20.8 161.65-21.34 162.92-21.53L162.92-21.53Q166.73-21.53 169.05-19.6 171.37-17.68 171.42-14.5L171.42-14.5 171.27-6.79Q171.27-5.71 171.35-4.86 171.42-4 171.62-3.56L171.62-3.56 174.74-2.98 174.74-1.32 172.1-0.24Q171.37 0.05 170.74 0.22 170.1 0.39 169.61 0.39L169.61 0.39Q167.95 0.39 167.42-1.37L167.42-1.37 166.78-3.42 167.61-3.32Q166.05-1.51 164.51-0.56 162.97 0.39 161.46 0.39ZM163.17-2.98L163.17-2.98Q164.15-2.98 165.02-3.42 165.9-3.86 166.68-4.74L166.68-4.74 166.68-9.77 161.9-8.59Q160.73-8.3 160.21-7.69 159.7-7.08 159.7-6.1L159.7-6.1Q159.7-4.88 160.73-3.93 161.75-2.98 163.17-2.98ZM187.92 0L176.69 0 176.55-1.95 179.72-2.69Q179.82-3.17 179.87-4.35 179.91-5.52 179.94-7.37 179.96-9.23 179.96-11.57L179.96-11.57 179.96-17.72Q179.96-19.48 179.94-21.34 179.91-23.19 179.89-24.88 179.87-26.56 179.84-27.81 179.82-29.05 179.77-29.59L179.77-29.59 176.15-30.08 176.06-31.79 183.82-33.94 184.89-33.2Q184.85-31.15 184.77-29.15 184.7-27.15 184.67-24.66 184.65-22.17 184.65-18.7L184.65-18.7 184.6-11.04Q184.6-7.96 184.67-5.59 184.75-3.22 184.85-2.69L184.85-2.69 188.02-1.95 187.92 0ZM202.71-4.54L199.83 0.2 191.09-18.46 188.8-19.19 188.94-21.14 199.35-21.14 199.49-19.19 196.46-18.46 202.71-4.54ZM204.37-21.14L212.68-21.14 212.77-19.19 210.48-18.46 202.13-1.22 198.27 6.88Q197.1 9.28 195.88 10.21 194.66 11.13 193.1 11.13L193.1 11.13Q191.73 11.13 190.87 10.47 190.02 9.81 190.02 8.84L190.02 8.84Q190.02 7.96 190.7 7.25 191.39 6.54 192.8 6.1L192.8 6.1 197.73 4.69 195.15 7.03 200.71-3.56 201.3-4.54 207.26-18.46 204.23-19.19 204.37-21.14ZM229.13-4.64L230.1-3.37Q229.27-1.61 227.54-0.61 225.81 0.39 223.9 0.39L223.9 0.39Q220.78 0.39 218.78-1.46 216.77-3.32 216.77-7.03L216.77-7.03 216.92-18.41 213.5-18.41 213.5-19.63 220.44-25.63 221.61-25.63 221.51-19.63 221.41-7.71Q221.41-5.37 222.46-4.25 223.51-3.13 225.47-3.13L225.47-3.13Q226.54-3.13 227.47-3.54 228.4-3.96 229.13-4.64L229.13-4.64ZM228.69-18.41L219.36-18.41 219.36-21.09 228.69-21.09 228.69-18.41ZM242.36 0L230.98 0 230.83-1.95 234.11-2.69Q234.15-2.88 234.2-3.44 234.25-4 234.28-5.05 234.3-6.1 234.3-7.76L234.3-7.76 234.35-11.23Q234.35-13.04 234.25-14.53 234.15-16.02 233.96-16.99L233.96-16.99 230.69-17.68 230.69-19.48 238.31-21.44 239.23-20.7Q239.09-19.19 239.01-17.68 238.94-16.16 238.94-14.16L238.94-14.16 238.94-8.01Q238.94-6.01 239.01-4.54 239.09-3.08 239.23-2.69L239.23-2.69 242.5-1.95 242.36 0ZM236.69-26.46L236.69-26.46Q235.23-26.46 234.28-27.39 233.32-28.32 233.32-29.69L233.32-29.69Q233.32-31.01 234.28-31.96 235.23-32.91 236.69-32.91L236.69-32.91Q238.16-32.91 239.06-31.96 239.97-31.01 239.97-29.69L239.97-29.69Q239.97-28.32 239.06-27.39 238.16-26.46 236.69-26.46ZM255.64 0.39L255.64 0.39Q252.8 0.39 250.44-0.9 248.07-2.2 246.65-4.57 245.24-6.93 245.24-10.11L245.24-10.11Q245.24-13.28 246.73-15.87 248.21-18.46 250.8-20 253.39-21.53 256.66-21.53L256.66-21.53Q258.81-21.53 260.35-20.97 261.89-20.41 262.74-19.51 263.6-18.6 263.6-17.53L263.6-17.53Q263.6-16.55 263.01-16.02 262.42-15.48 261.5-15.48L261.5-15.48Q260.62-15.48 260.03-15.8 259.45-16.11 258.57-16.94L258.57-16.94 255.73-19.68 257.69-19.14Q255.93-19.53 254.24-18.75 252.56-17.97 251.49-16.11 250.41-14.26 250.41-11.28L250.41-11.28Q250.41-7.42 252.34-5.4 254.27-3.37 257.15-3.37L257.15-3.37Q258.86-3.37 260.2-4.03 261.54-4.69 262.81-6.2L262.81-6.2 264.18-4.98Q262.81-2.29 260.59-0.95 258.37 0.39 255.64 0.39ZM274.19 0.39L274.19 0.39Q272.33 0.39 270.45-0.05 268.57-0.49 267.26-1.17L267.26-1.17 267.01-6.59 269.65-6.59 270.62-3.08Q272.33-1.9 274.53-1.9L274.53-1.9Q276.14-1.9 277.09-2.66 278.05-3.42 278.05-4.64L278.05-4.64Q278.05-5.86 277.14-6.76 276.24-7.67 273.55-8.74L273.55-8.74Q270.04-10.16 268.62-11.62 267.21-13.09 267.21-15.33L267.21-15.33Q267.21-17.14 268.33-18.53 269.45-19.92 271.41-20.73 273.36-21.53 275.95-21.53L275.95-21.53Q277.36-21.53 278.83-21.29 280.29-21.04 281.32-20.61L281.32-20.61 281.85-15.33 279.32-15.33 278.14-18.65Q277.66-18.95 276.97-19.12 276.29-19.29 275.56-19.29L275.56-19.29Q273.9-19.29 272.89-18.53 271.89-17.77 271.89-16.6L271.89-16.6Q271.89-15.28 273.02-14.4 274.14-13.53 276.97-12.26L276.97-12.26Q280.19-10.84 281.51-9.4 282.83-7.96 282.83-5.86L282.83-5.86Q282.83-3.13 280.41-1.37 278 0.39 274.19 0.39Z" opacity="1" transform="matrix(1,0,0,1,0,0)" fill="#ffffff" class="undefined-text-1" data-fill-palette-color="secondary" id="text-1"></path></svg></g></svg></g></svg></g></svg></g></svg></g></svg></g></svg></g><path d="M259.665 41.215L259.665 0 12.465 0 12.465 247.2 259.665 247.2 259.665 205.985 251.214 205.985 251.214 238.75 20.915 238.75 20.915 8.45 251.214 8.45 251.214 41.215Z" fill="#ffffff" stroke="transparent" data-fill-palette-color="primary"></path></svg></g><defs></defs></svg><rect width="395.52" height="247.2" fill="none" stroke="none" visibility="hidden"></rect></g></svg></g></svg>